# xmcd
# Track frame offsets:
# 150
# 11394
# 22576
#
# Disc length: 474 seconds
# Revision: 0
# Processed by: cddbd v1.5.2PL0 Copyright (c) Steve Scherf et al.
# Submitted via: VisiTrax 2.10.2.252 - For more info visit www.synapsa.com
#
DISCID=0d01d803
DTITLE=Broomsticks - Demo
DYEAR=2007
DGENRE=Blues
TTITLE0=Demo
TTITLE1=Demo
TTITLE2=Demo
EXTD=
EXTT0=
EXTT1=
EXTT2=
PLAYORDER=
